0
SECTION
2
HEADER
9
$ACADVER
1
AC1009
0
ENDSEC
0
SECTION
2
TABLES
0
TABLE
2
LAYER
70
127
0
LAYER
2
LAYER0
70
0
62
7
6
CONTINUOUS
0
LAYER
2
LAYER1
70
0
62
7
6
CONTINUOUS
0
LAYER
2
LAYER2
70
0
62
7
6
CONTINUOUS
0
LAYER
2
LAYER3
70
0
62
7
6
CONTINUOUS
0
LAYER
2
LAYER4
70
0
62
7
6
CONTINUOUS
0
LAYER
2
LAYER5
70
0
62
7
6
CONTINUOUS
0
LAYER
2
LAYER6
70
0
62
7
6
CONTINUOUS
0
LAYER
2
LAYER7
70
0
62
7
6
CONTINUOUS
0
LAYER
2
LAYER8
70
0
62
7
6
CONTINUOUS
0
LAYER
2
LAYER9
70
0
62
7
6
CONTINUOUS
0
LAYER
2
LAYER10
70
0
62
7
6
CONTINUOUS
0
LAYER
2
LAYER11
70
0
62
7
6
CONTINUOUS
0
LAYER
2
LAYER12
70
0
62
7
6
CONTINUOUS
0
LAYER
2
LAYER13
70
0
62
7
6
CONTINUOUS
0
LAYER
2
LAYER14
70
0
62
7
6
CONTINUOUS
0
LAYER
2
LAYER15
70
0
62
7
6
CONTINUOUS
0
LAYER
2
LAYER16
70
0
62
7
6
CONTINUOUS
0
LAYER
2
LAYER17
70
0
62
7
6
CONTINUOUS
0
LAYER
2
LAYER18
70
0
62
7
6
CONTINUOUS
0
LAYER
2
LAYER19
70
0
62
7
6
CONTINUOUS
0
ENDTAB
0
ENDSEC
0
SECTION
2
ENTITIES
0
3DFACE
8
LAYER0
10
1959.000000000000000
20
-0.000000000000480
30
0.000000000000480
11
-0.000000000000401
21
-1636.000000000000000
31
0.000000000000000
12
0.000000000000000
22
0.000000000000000
32
0.000000000000000
13
1959.000000000000000
23
-0.000000000000480
33
0.000000000000480
70
1
0
3DFACE
8
LAYER0
10
-0.000000000000401
20
-1636.000000000000000
30
0.000000000000000
11
1959.000000000000000
21
-0.000000000000480
31
0.000000000000480
12
1959.000000000000000
22
-1623.010000000000000
32
0.000000000000480
13
-0.000000000000401
23
-1636.000000000000000
33
0.000000000000000
70
1
0
3DFACE
8
LAYER0
10
-0.000000000000001
20
0.000000000000000
30
5.000000000000000
11
-0.000000000000401
21
-1636.000000000000000
31
0.000000000000000
12
-0.000000000000402
22
-1636.000000000000000
32
5.000000000000000
13
-0.000000000000001
23
0.000000000000000
33
5.000000000000000
70
1
0
3DFACE
8
LAYER0
10
-0.000000000000401
20
-1636.000000000000000
30
0.000000000000000
11
-0.000000000000001
21
0.000000000000000
31
5.000000000000000
12
0.000000000000000
22
0.000000000000000
32
0.000000000000000
13
-0.000000000000401
23
-1636.000000000000000
33
0.000000000000000
70
1
0
3DFACE
8
LAYER0
10
-0.000000000000001
20
0.000000000000000
30
5.000000000000000
11
1959.000000000000000
21
-0.000000000000480
31
0.000000000000480
12
0.000000000000000
22
0.000000000000000
32
0.000000000000000
13
-0.000000000000001
23
0.000000000000000
33
5.000000000000000
70
1
0
3DFACE
8
LAYER0
10
1959.000000000000000
20
-0.000000000000480
30
0.000000000000480
11
-0.000000000000001
21
0.000000000000000
31
5.000000000000000
12
1959.000000000000000
22
-0.000000000000480
32
5.000000000000000
13
1959.000000000000000
23
-0.000000000000480
33
0.000000000000480
70
1
0
3DFACE
8
LAYER0
10
1959.000000000000000
20
-0.000000000000480
30
0.000000000000480
11
1959.000000000000000
21
-1623.010000000000000
31
5.000000000000000
12
1959.000000000000000
22
-1623.010000000000000
32
0.000000000000480
13
1959.000000000000000
23
-0.000000000000480
33
0.000000000000480
70
1
0
3DFACE
8
LAYER0
10
1959.000000000000000
20
-1623.010000000000000
30
5.000000000000000
11
1959.000000000000000
21
-0.000000000000480
31
0.000000000000480
12
1959.000000000000000
22
-0.000000000000480
32
5.000000000000000
13
1959.000000000000000
23
-1623.010000000000000
33
5.000000000000000
70
1
0
3DFACE
8
LAYER0
10
1959.000000000000000
20
-1623.010000000000000
30
5.000000000000000
11
-0.000000000000401
21
-1636.000000000000000
31
0.000000000000000
12
1959.000000000000000
22
-1623.010000000000000
32
0.000000000000480
13
1959.000000000000000
23
-1623.010000000000000
33
5.000000000000000
70
1
0
3DFACE
8
LAYER0
10
-0.000000000000401
20
-1636.000000000000000
30
0.000000000000000
11
1959.000000000000000
21
-1623.010000000000000
31
5.000000000000000
12
-0.000000000000402
22
-1636.000000000000000
32
5.000000000000000
13
-0.000000000000401
23
-1636.000000000000000
33
0.000000000000000
70
1
0
3DFACE
8
LAYER0
10
1959.000000000000000
20
-1623.010000000000000
30
5.000000000000000
11
-0.000000000000001
21
0.000000000000000
31
5.000000000000000
12
-0.000000000000402
22
-1636.000000000000000
32
5.000000000000000
13
1959.000000000000000
23
-1623.010000000000000
33
5.000000000000000
70
1
0
3DFACE
8
LAYER0
10
-0.000000000000001
20
0.000000000000000
30
5.000000000000000
11
1959.000000000000000
21
-1623.010000000000000
31
5.000000000000000
12
1959.000000000000000
22
-0.000000000000480
32
5.000000000000000
13
-0.000000000000001
23
0.000000000000000
33
5.000000000000000
70
1
0
3DFACE
8
LAYER1
10
-0.000000000000402
20
-1636.000000000000000
30
5.000000000000000
11
150.000000000000000
21
-0.000000000000037
31
5.000000000000000
12
150.000000000000000
22
-1485.000000000000000
32
5.000000000000000
13
-0.000000000000402
23
-1636.000000000000000
33
5.000000000000000
70
7
0
3DFACE
8
LAYER1
10
150.000000000000000
20
-0.000000000000037
30
5.000000000000000
11
-0.000000000000402
21
-1636.000000000000000
31
5.000000000000000
12
-0.000000000000001
22
0.000000000000000
32
5.000000000000000
13
150.000000000000000
23
-0.000000000000037
33
5.000000000000000
70
1
0
3DFACE
8
LAYER1
10
1959.000000000000000
20
-1623.010000000000000
30
5.000000000000000
11
1809.000000000000000
21
-1474.000000000000000
31
5.000000000000000
12
1959.000000000000000
22
-0.000000000000480
32
5.000000000000000
13
1959.000000000000000
23
-1623.010000000000000
33
5.000000000000000
70
3
0
3DFACE
8
LAYER1
10
1959.000000000000000
20
-1623.010000000000000
30
5.000000000000000
11
150.000000000000000
21
-1485.000000000000000
31
5.000000000000000
12
1809.000000000000000
22
-1474.000000000000000
32
5.000000000000000
13
1959.000000000000000
23
-1623.010000000000000
33
5.000000000000000
70
5
0
3DFACE
8
LAYER1
10
150.000000000000000
20
-1485.000000000000000
30
5.000000000000000
11
1959.000000000000000
21
-1623.010000000000000
31
5.000000000000000
12
-0.000000000000402
22
-1636.000000000000000
32
5.000000000000000
13
150.000000000000000
23
-1485.000000000000000
33
5.000000000000000
70
5
0
3DFACE
8
LAYER1
10
1809.000000000000000
20
-150.000000000000000
30
5.000000000000000
11
1959.000000000000000
21
-0.000000000000480
31
5.000000000000000
12
1809.000000000000000
22
-1474.000000000000000
32
5.000000000000000
13
1809.000000000000000
23
-150.000000000000000
33
5.000000000000000
70
3
0
3DFACE
8
LAYER1
10
784.000000000000000
20
-150.000000000000000
30
5.000000000000000
11
1959.000000000000000
21
-0.000000000000480
31
5.000000000000000
12
1809.000000000000000
22
-150.000000000000000
32
5.000000000000000
13
784.000000000000000
23
-150.000000000000000
33
5.000000000000000
70
3
0
3DFACE
8
LAYER1
10
1959.000000000000000
20
-0.000000000000480
30
5.000000000000000
11
784.000000000000000
21
-150.000000000000000
31
5.000000000000000
12
784.000000000000000
22
-0.000000000000192
32
5.000000000000000
13
1959.000000000000000
23
-0.000000000000480
33
5.000000000000000
70
1
0
3DFACE
8
LAYER1
10
150.000000000000000
20
-150.000000000000000
30
5.000000000000000
11
150.000000000000000
21
-1485.000000000000000
31
2605.000000000000000
12
150.000000000000000
22
-1485.000000000000000
32
5.000000000000000
13
150.000000000000000
23
-150.000000000000000
33
5.000000000000000
70
1
0
3DFACE
8
LAYER1
10
150.000000000000000
20
-1485.000000000000000
30
2605.000000000000000
11
150.000000000000000
21
-150.000000000000000
31
5.000000000000000
12
150.000000000000000
22
-150.000000000000000
32
2605.000000000000000
13
150.000000000000000
23
-1485.000000000000000
33
2605.000000000000000
70
1
0
3DFACE
8
LAYER1
10
784.000000000000000
20
-150.000000000000000
30
2150.000000000000000
11
974.000000000000000
21
-150.000000000000000
31
265.000000000000000
12
974.000000000000000
22
-150.000000000000000
32
345.000000000000000
13
784.000000000000000
23
-150.000000000000000
33
2150.000000000000000
70
5
0
3DFACE
8
LAYER1
10
974.000000000000000
20
-150.000000000000000
30
265.000000000000000
11
784.000000000000000
21
-150.000000000000000
31
5.000000000000000
12
1034.000000000000000
22
-150.000000000000000
32
265.000000000000000
13
974.000000000000000
23
-150.000000000000000
33
265.000000000000000
70
3
0
3DFACE
8
LAYER1
10
784.000000000000000
20
-150.000000000000000
30
5.000000000000000
11
974.000000000000000
21
-150.000000000000000
31
265.000000000000000
12
784.000000000000000
22
-150.000000000000000
32
2150.000000000000000
13
784.000000000000000
23
-150.000000000000000
33
5.000000000000000
70
3
0
3DFACE
8
LAYER1
10
150.000000000000000
20
-150.000000000000000
30
2150.000000000000000
11
1809.000000000000000
21
-150.000000000000000
31
2605.000000000000000
12
150.000000000000000
22
-150.000000000000000
32
2605.000000000000000
13
150.000000000000000
23
-150.000000000000000
33
2150.000000000000000
70
1
0
3DFACE
8
LAYER1
10
784.000000000000000
20
-150.000000000000000
30
2150.000000000000000
11
1809.000000000000000
21
-150.000000000000000
31
2605.000000000000000
12
150.000000000000000
22
-150.000000000000000
32
2150.000000000000000
13
784.000000000000000
23
-150.000000000000000
33
2150.000000000000000
70
3
0
3DFACE
8
LAYER1
10
974.000000000000000
20
-150.000000000000000
30
345.000000000000000
11
1809.000000000000000
21
-150.000000000000000
31
2605.000000000000000
12
784.000000000000000
22
-150.000000000000000
32
2150.000000000000000
13
974.000000000000000
23
-150.000000000000000
33
345.000000000000000
70
7
0
3DFACE
8
LAYER1
10
1034.000000000000000
20
-150.000000000000000
30
345.000000000000000
11
1809.000000000000000
21
-150.000000000000000
31
2605.000000000000000
12
974.000000000000000
22
-150.000000000000000
32
345.000000000000000
13
1034.000000000000000
23
-150.000000000000000
33
345.000000000000000
70
3
0
3DFACE
8
LAYER1
10
1034.000000000000000
20
-150.000000000000000
30
265.000000000000000
11
1809.000000000000000
21
-150.000000000000000
31
2605.000000000000000
12
1034.000000000000000
22
-150.000000000000000
32
345.000000000000000
13
1034.000000000000000
23
-150.000000000000000
33
265.000000000000000
70
3
0
3DFACE
8
LAYER1
10
1034.000000000000000
20
-150.000000000000000
30
265.000000000000000
11
1809.000000000000000
21
-150.000000000000000
31
5.000000000000000
12
1809.000000000000000
22
-150.000000000000000
32
2605.000000000000000
13
1034.000000000000000
23
-150.000000000000000
33
265.000000000000000
70
5
0
3DFACE
8
LAYER1
10
1809.000000000000000
20
-150.000000000000000
30
5.000000000000000
11
1034.000000000000000
21
-150.000000000000000
31
265.000000000000000
12
784.000000000000000
22
-150.000000000000000
32
5.000000000000000
13
1809.000000000000000
23
-150.000000000000000
33
5.000000000000000
70
3
0
3DFACE
8
LAYER1
10
1809.000000000000000
20
-150.000000000000000
30
2605.000000000000000
11
1809.000000000000000
21
-1474.000000000000000
31
5.000000000000000
12
1809.000000000000000
22
-1474.000000000000000
32
2605.000000000000000
13
1809.000000000000000
23
-150.000000000000000
33
2605.000000000000000
70
1
0
3DFACE
8
LAYER1
10
1809.000000000000000
20
-1474.000000000000000
30
5.000000000000000
11
1809.000000000000000
21
-150.000000000000000
31
2605.000000000000000
12
1809.000000000000000
22
-150.000000000000000
32
5.000000000000000
13
1809.000000000000000
23
-1474.000000000000000
33
5.000000000000000
70
1
0
3DFACE
8
LAYER1
10
150.000000000000000
20
-1485.000000000000000
30
2605.000000000000000
11
1809.000000000000000
21
-1474.000000000000000
31
5.000000000000000
12
150.000000000000000
22
-1485.000000000000000
32
5.000000000000000
13
150.000000000000000
23
-1485.000000000000000
33
2605.000000000000000
70
1
0
3DFACE
8
LAYER1
10
1809.000000000000000
20
-1474.000000000000000
30
5.000000000000000
11
150.000000000000000
21
-1485.000000000000000
31
2605.000000000000000
12
1809.000000000000000
22
-1474.000000000000000
32
2605.000000000000000
13
1809.000000000000000
23
-1474.000000000000000
33
5.000000000000000
70
1
0
3DFACE
8
LAYER1
10
150.000000000000000
20
-1485.000000000000000
30
2605.000000000000000
11
-0.000000000000402
21
-1636.000000000000000
31
5.000000000000000
12
-0.000000000001039
22
-1636.000000000000000
32
2605.000000000000000
13
150.000000000000000
23
-1485.000000000000000
33
2605.000000000000000
70
1
0
3DFACE
8
LAYER1
10
-0.000000000000402
20
-1636.000000000000000
30
5.000000000000000
11
150.000000000000000
21
-1485.000000000000000
31
2605.000000000000000
12
150.000000000000000
22
-1485.000000000000000
32
5.000000000000000
13
-0.000000000000402
23
-1636.000000000000000
33
5.000000000000000
70
1
0
3DFACE
8
LAYER1
10
1959.000000000000000
20
-1623.010000000000000
30
2605.000000000000000
11
-0.000000000000402
21
-1636.000000000000000
31
5.000000000000000
12
1959.000000000000000
22
-1623.010000000000000
32
5.000000000000000
13
1959.000000000000000
23
-1623.010000000000000
33
2605.000000000000000
70
1
0
3DFACE
8
LAYER1
10
-0.000000000000402
20
-1636.000000000000000
30
5.000000000000000
11
1959.000000000000000
21
-1623.010000000000000
31
2605.000000000000000
12
-0.000000000001039
22
-1636.000000000000000
32
2605.000000000000000
13
-0.000000000000402
23
-1636.000000000000000
33
5.000000000000000
70
1
0
3DFACE
8
LAYER1
10
1959.000000000000000
20
-0.000000000000480
30
5.000000000000000
11
1959.000000000000000
21
-1623.010000000000000
31
2605.000000000000000
12
1959.000000000000000
22
-1623.010000000000000
32
5.000000000000000
13
1959.000000000000000
23
-0.000000000000480
33
5.000000000000000
70
1
0
3DFACE
8
LAYER1
10
1959.000000000000000
20
-1623.010000000000000
30
2605.000000000000000
11
1959.000000000000000
21
-0.000000000000480
31
5.000000000000000
12
1959.000000000000000
22
-0.000000000000480
32
2605.000000000000000
13
1959.000000000000000
23
-1623.010000000000000
33
2605.000000000000000
70
1
0
3DFACE
8
LAYER1
10
1959.000000000000000
20
-0.000000000000480
30
2605.000000000000000
11
784.000000000000000
21
-0.000000000000192
31
2150.000000000000000
12
-0.000000000000638
22
0.000000000000000
32
2605.000000000000000
13
1959.000000000000000
23
-0.000000000000480
33
2605.000000000000000
70
3
0
3DFACE
8
LAYER1
10
1959.000000000000000
20
-0.000000000000480
30
5.000000000000000
11
784.000000000000000
21
-0.000000000000192
31
2150.000000000000000
12
1959.000000000000000
22
-0.000000000000480
32
2605.000000000000000
13
1959.000000000000000
23
-0.000000000000480
33
5.000000000000000
70
3
0
3DFACE
8
LAYER1
10
784.000000000000000
20
-0.000000000000192
30
2150.000000000000000
11
1959.000000000000000
21
-0.000000000000480
31
5.000000000000000
12
784.000000000000000
22
-0.000000000000192
32
5.000000000000000
13
784.000000000000000
23
-0.000000000000192
33
2150.000000000000000
70
1
0
3DFACE
8
LAYER1
10
150.000000000000000
20
-0.000000000000037
30
2150.000000000000000
11
-0.000000000000638
21
0.000000000000000
31
2605.000000000000000
12
784.000000000000000
22
-0.000000000000192
32
2150.000000000000000
13
150.000000000000000
23
-0.000000000000037
33
2150.000000000000000
70
3
0
3DFACE
8
LAYER1
10
150.000000000000000
20
-0.000000000000037
30
5.000000000000000
11
-0.000000000000638
21
0.000000000000000
31
2605.000000000000000
12
150.000000000000000
22
-0.000000000000037
32
2150.000000000000000
13
150.000000000000000
23
-0.000000000000037
33
5.000000000000000
70
3
0
3DFACE
8
LAYER1
10
-0.000000000000638
20
0.000000000000000
30
2605.000000000000000
11
150.000000000000000
21
-0.000000000000037
31
5.000000000000000
12
-0.000000000000001
22
0.000000000000000
32
5.000000000000000
13
-0.000000000000638
23
0.000000000000000
33
2605.000000000000000
70
1
0
3DFACE
8
LAYER1
10
-0.000000000000638
20
0.000000000000000
30
2605.000000000000000
11
-0.000000000000402
21
-1636.000000000000000
31
5.000000000000000
12
-0.000000000001039
22
-1636.000000000000000
32
2605.000000000000000
13
-0.000000000000638
23
0.000000000000000
33
2605.000000000000000
70
1
0
3DFACE
8
LAYER1
10
-0.000000000000402
20
-1636.000000000000000
30
5.000000000000000
11
-0.000000000000638
21
0.000000000000000
31
2605.000000000000000
12
-0.000000000000001
22
0.000000000000000
32
5.000000000000000
13
-0.000000000000402
23
-1636.000000000000000
33
5.000000000000000
70
1
0
3DFACE
8
LAYER1
10
150.000000000000000
20
-1485.000000000000000
30
5.000000000000000
11
-0.000000000001039
21
-1636.000000000000000
31
2605.000000000000000
12
-0.000000000000402
22
-1636.000000000000000
32
5.000000000000000
13
150.000000000000000
23
-1485.000000000000000
33
5.000000000000000
70
1
0
3DFACE
8
LAYER1
10
-0.000000000001039
20
-1636.000000000000000
30
2605.000000000000000
11
150.000000000000000
21
-1485.000000000000000
31
5.000000000000000
12
150.000000000000000
22
-1485.000000000000000
32
2605.000000000000000
13
-0.000000000001039
23
-1636.000000000000000
33
2605.000000000000000
70
1
0
POLYLINE
8
LAYER1
66
1
70
16
71
5
72
2
0
VERTEX
8
LAYER1
10
150.000000000000000
20
-150.000000000000000
30
2605.000000000000000
70
64
0
VERTEX
8
LAYER1
10
150.000000000000000
20
-1485.000000000000000
30
2605.000000000000000
70
64
0
VERTEX
8
LAYER1
10
1809.000000000000000
20
-150.000000000000000
30
2605.000000000000000
70
64
0
VERTEX
8
LAYER1
10
150.000000000000000
20
-150.000000000000000
30
2605.000000000000000
70
64
0
VERTEX
8
LAYER1
10
1809.000000000000000
20
-1474.000000000000000
30
2605.000000000000000
70
64
0
VERTEX
8
LAYER1
10
1809.000000000000000
20
-150.000000000000000
30
2605.000000000000000
70
64
0
VERTEX
8
LAYER1
10
150.000000000000000
20
-1485.000000000000000
30
2605.000000000000000
70
64
0
VERTEX
8
LAYER1
10
1809.000000000000000
20
-1474.000000000000000
30
2605.000000000000000
70
64
0
VERTEX
8
LAYER1
10
-0.000000000001039
20
-1635.998000000000000
30
2605.000000000000000
70
64
0
VERTEX
8
LAYER1
10
1959.000000000000000
20
-1623.009000000000000
30
2605.000000000000000
70
64
0
SEQEND
0
3DFACE
8
LAYER2
10
1809.000000000000000
20
-1368.000000000000000
30
505.000000000000000
11
1459.000000000000000
21
-168.000000000000000
31
505.000000000000000
12
1809.000000000000000
22
-168.000000000000000
32
505.000000000000000
13
1809.000000000000000
23
-1368.000000000000000
33
505.000000000000000
70
1
0
3DFACE
8
LAYER2
10
1459.000000000000000
20
-168.000000000000000
30
505.000000000000000
11
1809.000000000000000
21
-1368.000000000000000
31
505.000000000000000
12
1459.000000000000000
22
-1368.000000000000000
32
505.000000000000000
13
1459.000000000000000
23
-168.000000000000000
33
505.000000000000000
70
1
0
3DFACE
8
LAYER2
10
1809.000000000000000
20
-168.000000000000000
30
530.000000000000000
11
1459.000000000000000
21
-168.000000000000000
31
505.000000000000000
12
1459.000000000000000
22
-168.000000000000000
32
530.000000000000000
13
1809.000000000000000
23
-168.000000000000000
33
530.000000000000000
70
1
0
3DFACE
8
LAYER2
10
1459.000000000000000
20
-168.000000000000000
30
505.000000000000000
11
1809.000000000000000
21
-168.000000000000000
31
530.000000000000000
12
1809.000000000000000
22
-168.000000000000000
32
505.000000000000000
13
1459.000000000000000
23
-168.000000000000000
33
505.000000000000000
70
1
0
3DFACE
8
LAYER2
10
1459.000000000000000
20
-1368.000000000000000
30
530.000000000000000
11
1459.000000000000000
21
-168.000000000000000
31
505.000000000000000
12
1459.000000000000000
22
-1368.000000000000000
32
505.000000000000000
13
1459.000000000000000
23
-1368.000000000000000
33
530.000000000000000
70
1
0
3DFACE
8
LAYER2
10
1459.000000000000000
20
-168.000000000000000
30
505.000000000000000
11
1459.000000000000000
21
-1368.000000000000000
31
530.000000000000000
12
1459.000000000000000
22
-168.000000000000000
32
530.000000000000000
13
1459.000000000000000
23
-168.000000000000000
33
505.000000000000000
70
1
0
3DFACE
8
LAYER2
10
1809.000000000000000
20
-1368.000000000000000
30
505.000000000000000
11
1459.000000000000000
21
-1368.000000000000000
31
530.000000000000000
12
1459.000000000000000
22
-1368.000000000000000
32
505.000000000000000
13
1809.000000000000000
23
-1368.000000000000000
33
505.000000000000000
70
1
0
3DFACE
8
LAYER2
10
1459.000000000000000
20
-1368.000000000000000
30
530.000000000000000
11
1809.000000000000000
21
-1368.000000000000000
31
505.000000000000000
12
1809.000000000000000
22
-1368.000000000000000
32
530.000000000000000
13
1459.000000000000000
23
-1368.000000000000000
33
530.000000000000000
70
1
0
3DFACE
8
LAYER2
10
1809.000000000000000
20
-168.000000000000000
30
530.000000000000000
11
1809.000000000000000
21
-1368.000000000000000
31
505.000000000000000
12
1809.000000000000000
22
-168.000000000000000
32
505.000000000000000
13
1809.000000000000000
23
-168.000000000000000
33
530.000000000000000
70
1
0
3DFACE
8
LAYER2
10
1809.000000000000000
20
-1368.000000000000000
30
505.000000000000000
11
1809.000000000000000
21
-168.000000000000000
31
530.000000000000000
12
1809.000000000000000
22
-1368.000000000000000
32
530.000000000000000
13
1809.000000000000000
23
-1368.000000000000000
33
505.000000000000000
70
1
0
3DFACE
8
LAYER2
10
1459.000000000000000
20
-1368.000000000000000
30
530.000000000000000
11
1809.000000000000000
21
-168.000000000000000
31
530.000000000000000
12
1459.000000000000000
22
-168.000000000000000
32
530.000000000000000
13
1459.000000000000000
23
-1368.000000000000000
33
530.000000000000000
70
1
0
3DFACE
8
LAYER2
10
1809.000000000000000
20
-168.000000000000000
30
530.000000000000000
11
1459.000000000000000
21
-1368.000000000000000
31
530.000000000000000
12
1809.000000000000000
22
-1368.000000000000000
32
530.000000000000000
13
1809.000000000000000
23
-168.000000000000000
33
530.000000000000000
70
1
0
3DFACE
8
LAYER3
10
167.996700000000000
20
-1484.881000000000000
30
505.000300000000000
11
1439.278000000000000
21
-1126.444000000000000
31
505.000300000000000
12
1441.599000000000000
22
-1476.436000000000000
32
505.000300000000000
13
167.996700000000000
23
-1484.881000000000000
33
505.000300000000000
70
1
0
3DFACE
8
LAYER3
10
1439.278000000000000
20
-1126.444000000000000
30
505.000300000000000
11
167.996700000000000
21
-1484.881000000000000
31
505.000300000000000
12
165.676000000000000
22
-1134.888000000000000
32
505.000300000000000
13
1439.278000000000000
23
-1126.444000000000000
33
505.000300000000000
70
1
0
3DFACE
8
LAYER3
10
1441.599000000000000
20
-1476.436000000000000
30
530.000300000000000
11
1439.278000000000000
21
-1126.444000000000000
31
505.000300000000000
12
1439.278000000000000
22
-1126.444000000000000
32
530.000300000000000
13
1441.599000000000000
23
-1476.436000000000000
33
530.000300000000000
70
1
0
3DFACE
8
LAYER3
10
1439.278000000000000
20
-1126.444000000000000
30
505.000300000000000
11
1441.599000000000000
21
-1476.436000000000000
31
530.000300000000000
12
1441.599000000000000
22
-1476.436000000000000
32
505.000300000000000
13
1439.278000000000000
23
-1126.444000000000000
33
505.000300000000000
70
1
0
3DFACE
8
LAYER3
10
165.676000000000000
20
-1134.888000000000000
30
530.000300000000000
11
1439.278000000000000
21
-1126.444000000000000
31
505.000300000000000
12
165.676000000000000
22
-1134.888000000000000
32
505.000300000000000
13
165.676000000000000
23
-1134.888000000000000
33
530.000300000000000
70
1
0
3DFACE
8
LAYER3
10
1439.278000000000000
20
-1126.444000000000000
30
505.000300000000000
11
165.676000000000000
21
-1134.888000000000000
31
530.000300000000000
12
1439.278000000000000
22
-1126.444000000000000
32
530.000300000000000
13
1439.278000000000000
23
-1126.444000000000000
33
505.000300000000000
70
1
0
3DFACE
8
LAYER3
10
167.996700000000000
20
-1484.881000000000000
30
505.000300000000000
11
165.676000000000000
21
-1134.888000000000000
31
530.000300000000000
12
165.676000000000000
22
-1134.888000000000000
32
505.000300000000000
13
167.996700000000000
23
-1484.881000000000000
33
505.000300000000000
70
1
0
3DFACE
8
LAYER3
10
165.676000000000000
20
-1134.888000000000000
30
530.000300000000000
11
167.996700000000000
21
-1484.881000000000000
31
505.000300000000000
12
167.996700000000000
22
-1484.881000000000000
32
530.000300000000000
13
165.676000000000000
23
-1134.888000000000000
33
530.000300000000000
70
1
0
3DFACE
8
LAYER3
10
1441.599000000000000
20
-1476.436000000000000
30
530.000300000000000
11
167.996700000000000
21
-1484.881000000000000
31
505.000300000000000
12
1441.599000000000000
22
-1476.436000000000000
32
505.000300000000000
13
1441.599000000000000
23
-1476.436000000000000
33
530.000300000000000
70
1
0
3DFACE
8
LAYER3
10
167.996700000000000
20
-1484.881000000000000
30
505.000300000000000
11
1441.599000000000000
21
-1476.436000000000000
31
530.000300000000000
12
167.996700000000000
22
-1484.881000000000000
32
530.000300000000000
13
167.996700000000000
23
-1484.881000000000000
33
505.000300000000000
70
1
0
3DFACE
8
LAYER3
10
165.676000000000000
20
-1134.888000000000000
30
530.000300000000000
11
1441.599000000000000
21
-1476.436000000000000
31
530.000300000000000
12
1439.278000000000000
22
-1126.444000000000000
32
530.000300000000000
13
165.676000000000000
23
-1134.888000000000000
33
530.000300000000000
70
1
0
3DFACE
8
LAYER3
10
1441.599000000000000
20
-1476.436000000000000
30
530.000300000000000
11
165.676000000000000
21
-1134.888000000000000
31
530.000300000000000
12
167.996700000000000
22
-1484.881000000000000
32
530.000300000000000
13
1441.599000000000000
23
-1476.436000000000000
33
530.000300000000000
70
1
0
3DFACE
8
LAYER4
10
1809.000000000000000
20
-168.000000000000000
30
1805.000000000000000
11
1459.000000000000000
21
-168.000000000000000
31
505.000000000000000
12
1809.000000000000000
22
-168.000000000000000
32
505.000000000000000
13
1809.000000000000000
23
-168.000000000000000
33
1805.000000000000000
70
1
0
3DFACE
8
LAYER4
10
1459.000000000000000
20
-168.000000000000000
30
505.000000000000000
11
1809.000000000000000
21
-168.000000000000000
31
1805.000000000000000
12
1459.000000000000000
22
-168.000000000000000
32
1805.000000000000000
13
1459.000000000000000
23
-168.000000000000000
33
505.000000000000000
70
1
0
3DFACE
8
LAYER4
10
1809.000000000000000
20
-150.000000000000000
30
505.000000000000000
11
1459.000000000000000
21
-168.000000000000000
31
505.000000000000000
12
1459.000000000000000
22
-150.000000000000000
32
505.000000000000000
13
1809.000000000000000
23
-150.000000000000000
33
505.000000000000000
70
1
0
3DFACE
8
LAYER4
10
1459.000000000000000
20
-168.000000000000000
30
505.000000000000000
11
1809.000000000000000
21
-150.000000000000000
31
505.000000000000000
12
1809.000000000000000
22
-168.000000000000000
32
505.000000000000000
13
1459.000000000000000
23
-168.000000000000000
33
505.000000000000000
70
1
0
3DFACE
8
LAYER4
10
1459.000000000000000
20
-150.000000000000000
30
1805.000000000000000
11
1459.000000000000000
21
-168.000000000000000
31
505.000000000000000
12
1459.000000000000000
22
-168.000000000000000
32
1805.000000000000000
13
1459.000000000000000
23
-150.000000000000000
33
1805.000000000000000
70
1
0
3DFACE
8
LAYER4
10
1459.000000000000000
20
-168.000000000000000
30
505.000000000000000
11
1459.000000000000000
21
-150.000000000000000
31
1805.000000000000000
12
1459.000000000000000
22
-150.000000000000000
32
505.000000000000000
13
1459.000000000000000
23
-168.000000000000000
33
505.000000000000000
70
1
0
3DFACE
8
LAYER4
10
1809.000000000000000
20
-168.000000000000000
30
1805.000000000000000
11
1459.000000000000000
21
-150.000000000000000
31
1805.000000000000000
12
1459.000000000000000
22
-168.000000000000000
32
1805.000000000000000
13
1809.000000000000000
23
-168.000000000000000
33
1805.000000000000000
70
1
0
3DFACE
8
LAYER4
10
1459.000000000000000
20
-150.000000000000000
30
1805.000000000000000
11
1809.000000000000000
21
-168.000000000000000
31
1805.000000000000000
12
1809.000000000000000
22
-150.000000000000000
32
1805.000000000000000
13
1459.000000000000000
23
-150.000000000000000
33
1805.000000000000000
70
1
0
3DFACE
8
LAYER4
10
1809.000000000000000
20
-150.000000000000000
30
505.000000000000000
11
1809.000000000000000
21
-168.000000000000000
31
1805.000000000000000
12
1809.000000000000000
22
-168.000000000000000
32
505.000000000000000
13
1809.000000000000000
23
-150.000000000000000
33
505.000000000000000
70
1
0
3DFACE
8
LAYER4
10
1809.000000000000000
20
-168.000000000000000
30
1805.000000000000000
11
1809.000000000000000
21
-150.000000000000000
31
505.000000000000000
12
1809.000000000000000
22
-150.000000000000000
32
1805.000000000000000
13
1809.000000000000000
23
-168.000000000000000
33
1805.000000000000000
70
1
0
3DFACE
8
LAYER4
10
1459.000000000000000
20
-150.000000000000000
30
1805.000000000000000
11
1809.000000000000000
21
-150.000000000000000
31
505.000000000000000
12
1459.000000000000000
22
-150.000000000000000
32
505.000000000000000
13
1459.000000000000000
23
-150.000000000000000
33
1805.000000000000000
70
1
0
3DFACE
8
LAYER4
10
1809.000000000000000
20
-150.000000000000000
30
505.000000000000000
11
1459.000000000000000
21
-150.000000000000000
31
1805.000000000000000
12
1809.000000000000000
22
-150.000000000000000
32
1805.000000000000000
13
1809.000000000000000
23
-150.000000000000000
33
505.000000000000000
70
1
0
3DFACE
8
LAYER5
10
1809.000000000000000
20
-1368.000000000000000
30
930.000000000000000
11
1459.000000000000000
21
-168.000000000000000
31
930.000000000000000
12
1809.000000000000000
22
-168.000000000000000
32
930.000000000000000
13
1809.000000000000000
23
-1368.000000000000000
33
930.000000000000000
70
1
0
3DFACE
8
LAYER5
10
1459.000000000000000
20
-168.000000000000000
30
930.000000000000000
11
1809.000000000000000
21
-1368.000000000000000
31
930.000000000000000
12
1459.000000000000000
22
-1368.000000000000000
32
930.000000000000000
13
1459.000000000000000
23
-168.000000000000000
33
930.000000000000000
70
1
0
3DFACE
8
LAYER5
10
1809.000000000000000
20
-168.000000000000000
30
955.000000000000000
11
1459.000000000000000
21
-168.000000000000000
31
930.000000000000000
12
1459.000000000000000
22
-168.000000000000000
32
955.000000000000000
13
1809.000000000000000
23
-168.000000000000000
33
955.000000000000000
70
1
0
3DFACE
8
LAYER5
10
1459.000000000000000
20
-168.000000000000000
30
930.000000000000000
11
1809.000000000000000
21
-168.000000000000000
31
955.000000000000000
12
1809.000000000000000
22
-168.000000000000000
32
930.000000000000000
13
1459.000000000000000
23
-168.000000000000000
33
930.000000000000000
70
1
0
3DFACE
8
LAYER5
10
1459.000000000000000
20
-1368.000000000000000
30
955.000000000000000
11
1459.000000000000000
21
-168.000000000000000
31
930.000000000000000
12
1459.000000000000000
22
-1368.000000000000000
32
930.000000000000000
13
1459.000000000000000
23
-1368.000000000000000
33
955.000000000000000
70
1
0
3DFACE
8
LAYER5
10
1459.000000000000000
20
-168.000000000000000
30
930.000000000000000
11
1459.000000000000000
21
-1368.000000000000000
31
955.000000000000000
12
1459.000000000000000
22
-168.000000000000000
32
955.000000000000000
13
1459.000000000000000
23
-168.000000000000000
33
930.000000000000000
70
1
0
3DFACE
8
LAYER5
10
1809.000000000000000
20
-1368.000000000000000
30
930.000000000000000
11
1459.000000000000000
21
-1368.000000000000000
31
955.000000000000000
12
1459.000000000000000
22
-1368.000000000000000
32
930.000000000000000
13
1809.000000000000000
23
-1368.000000000000000
33
930.000000000000000
70
1
0
3DFACE
8
LAYER5
10
1459.000000000000000
20
-1368.000000000000000
30
955.000000000000000
11
1809.000000000000000
21
-1368.000000000000000
31
930.000000000000000
12
1809.000000000000000
22
-1368.000000000000000
32
955.000000000000000
13
1459.000000000000000
23
-1368.000000000000000
33
955.000000000000000
70
1
0
3DFACE
8
LAYER5
10
1809.000000000000000
20
-168.000000000000000
30
955.000000000000000
11
1809.000000000000000
21
-1368.000000000000000
31
930.000000000000000
12
1809.000000000000000
22
-168.000000000000000
32
930.000000000000000
13
1809.000000000000000
23
-168.000000000000000
33
955.000000000000000
70
1
0
3DFACE
8
LAYER5
10
1809.000000000000000
20
-1368.000000000000000
30
930.000000000000000
11
1809.000000000000000
21
-168.000000000000000
31
955.000000000000000
12
1809.000000000000000
22
-1368.000000000000000
32
955.000000000000000
13
1809.000000000000000
23
-1368.000000000000000
33
930.000000000000000
70
1
0
3DFACE
8
LAYER5
10
1459.000000000000000
20
-1368.000000000000000
30
955.000000000000000
11
1809.000000000000000
21
-168.000000000000000
31
955.000000000000000
12
1459.000000000000000
22
-168.000000000000000
32
955.000000000000000
13
1459.000000000000000
23
-1368.000000000000000
33
955.000000000000000
70
1
0
3DFACE
8
LAYER5
10
1809.000000000000000
20
-168.000000000000000
30
955.000000000000000
11
1459.000000000000000
21
-1368.000000000000000
31
955.000000000000000
12
1809.000000000000000
22
-1368.000000000000000
32
955.000000000000000
13
1809.000000000000000
23
-168.000000000000000
33
955.000000000000000
70
1
0
3DFACE
8
LAYER6
10
1809.000000000000000
20
-1368.000000000000000
30
1355.000000000000000
11
1459.000000000000000
21
-168.000000000000000
31
1355.000000000000000
12
1809.000000000000000
22
-168.000000000000000
32
1355.000000000000000
13
1809.000000000000000
23
-1368.000000000000000
33
1355.000000000000000
70
1
0
3DFACE
8
LAYER6
10
1459.000000000000000
20
-168.000000000000000
30
1355.000000000000000
11
1809.000000000000000
21
-1368.000000000000000
31
1355.000000000000000
12
1459.000000000000000
22
-1368.000000000000000
32
1355.000000000000000
13
1459.000000000000000
23
-168.000000000000000
33
1355.000000000000000
70
1
0
3DFACE
8
LAYER6
10
1809.000000000000000
20
-168.000000000000000
30
1380.000000000000000
11
1459.000000000000000
21
-168.000000000000000
31
1355.000000000000000
12
1459.000000000000000
22
-168.000000000000000
32
1380.000000000000000
13
1809.000000000000000
23
-168.000000000000000
33
1380.000000000000000
70
1
0
3DFACE
8
LAYER6
10
1459.000000000000000
20
-168.000000000000000
30
1355.000000000000000
11
1809.000000000000000
21
-168.000000000000000
31
1380.000000000000000
12
1809.000000000000000
22
-168.000000000000000
32
1355.000000000000000
13
1459.000000000000000
23
-168.000000000000000
33
1355.000000000000000
70
1
0
3DFACE
8
LAYER6
10
1459.000000000000000
20
-1368.000000000000000
30
1380.000000000000000
11
1459.000000000000000
21
-168.000000000000000
31
1355.000000000000000
12
1459.000000000000000
22
-1368.000000000000000
32
1355.000000000000000
13
1459.000000000000000
23
-1368.000000000000000
33
1380.000000000000000
70
1
0
3DFACE
8
LAYER6
10
1459.000000000000000
20
-168.000000000000000
30
1355.000000000000000
11
1459.000000000000000
21
-1368.000000000000000
31
1380.000000000000000
12
1459.000000000000000
22
-168.000000000000000
32
1380.000000000000000
13
1459.000000000000000
23
-168.000000000000000
33
1355.000000000000000
70
1
0
3DFACE
8
LAYER6
10
1809.000000000000000
20
-1368.000000000000000
30
1355.000000000000000
11
1459.000000000000000
21
-1368.000000000000000
31
1380.000000000000000
12
1459.000000000000000
22
-1368.000000000000000
32
1355.000000000000000
13
1809.000000000000000
23
-1368.000000000000000
33
1355.000000000000000
70
1
0
3DFACE
8
LAYER6
10
1459.000000000000000
20
-1368.000000000000000
30
1380.000000000000000
11
1809.000000000000000
21
-1368.000000000000000
31
1355.000000000000000
12
1809.000000000000000
22
-1368.000000000000000
32
1380.000000000000000
13
1459.000000000000000
23
-1368.000000000000000
33
1380.000000000000000
70
1
0
3DFACE
8
LAYER6
10
1809.000000000000000
20
-168.000000000000000
30
1380.000000000000000
11
1809.000000000000000
21
-1368.000000000000000
31
1355.000000000000000
12
1809.000000000000000
22
-168.000000000000000
32
1355.000000000000000
13
1809.000000000000000
23
-168.000000000000000
33
1380.000000000000000
70
1
0
3DFACE
8
LAYER6
10
1809.000000000000000
20
-1368.000000000000000
30
1355.000000000000000
11
1809.000000000000000
21
-168.000000000000000
31
1380.000000000000000
12
1809.000000000000000
22
-1368.000000000000000
32
1380.000000000000000
13
1809.000000000000000
23
-1368.000000000000000
33
1355.000000000000000
70
1
0
3DFACE
8
LAYER6
10
1459.000000000000000
20
-1368.000000000000000
30
1380.000000000000000
11
1809.000000000000000
21
-168.000000000000000
31
1380.000000000000000
12
1459.000000000000000
22
-168.000000000000000
32
1380.000000000000000
13
1459.000000000000000
23
-1368.000000000000000
33
1380.000000000000000
70
1
0
3DFACE
8
LAYER6
10
1809.000000000000000
20
-168.000000000000000
30
1380.000000000000000
11
1459.000000000000000
21
-1368.000000000000000
31
1380.000000000000000
12
1809.000000000000000
22
-1368.000000000000000
32
1380.000000000000000
13
1809.000000000000000
23
-168.000000000000000
33
1380.000000000000000
70
1
0
3DFACE
8
LAYER7
10
1809.000000000000000
20
-1368.000000000000000
30
1780.000000000000000
11
1459.000000000000000
21
-168.000000000000000
31
1780.000000000000000
12
1809.000000000000000
22
-168.000000000000000
32
1780.000000000000000
13
1809.000000000000000
23
-1368.000000000000000
33
1780.000000000000000
70
1
0
3DFACE
8
LAYER7
10
1459.000000000000000
20
-168.000000000000000
30
1780.000000000000000
11
1809.000000000000000
21
-1368.000000000000000
31
1780.000000000000000
12
1459.000000000000000
22
-1368.000000000000000
32
1780.000000000000000
13
1459.000000000000000
23
-168.000000000000000
33
1780.000000000000000
70
1
0
3DFACE
8
LAYER7
10
1809.000000000000000
20
-168.000000000000000
30
1805.000000000000000
11
1459.000000000000000
21
-168.000000000000000
31
1780.000000000000000
12
1459.000000000000000
22
-168.000000000000000
32
1805.000000000000000
13
1809.000000000000000
23
-168.000000000000000
33
1805.000000000000000
70
1
0
3DFACE
8
LAYER7
10
1459.000000000000000
20
-168.000000000000000
30
1780.000000000000000
11
1809.000000000000000
21
-168.000000000000000
31
1805.000000000000000
12
1809.000000000000000
22
-168.000000000000000
32
1780.000000000000000
13
1459.000000000000000
23
-168.000000000000000
33
1780.000000000000000
70
1
0
3DFACE
8
LAYER7
10
1459.000000000000000
20
-1368.000000000000000
30
1805.000000000000000
11
1459.000000000000000
21
-168.000000000000000
31
1780.000000000000000
12
1459.000000000000000
22
-1368.000000000000000
32
1780.000000000000000
13
1459.000000000000000
23
-1368.000000000000000
33
1805.000000000000000
70
1
0
3DFACE
8
LAYER7
10
1459.000000000000000
20
-168.000000000000000
30
1780.000000000000000
11
1459.000000000000000
21
-1368.000000000000000
31
1805.000000000000000
12
1459.000000000000000
22
-168.000000000000000
32
1805.000000000000000
13
1459.000000000000000
23
-168.000000000000000
33
1780.000000000000000
70
1
0
3DFACE
8
LAYER7
10
1809.000000000000000
20
-1368.000000000000000
30
1780.000000000000000
11
1459.000000000000000
21
-1368.000000000000000
31
1805.000000000000000
12
1459.000000000000000
22
-1368.000000000000000
32
1780.000000000000000
13
1809.000000000000000
23
-1368.000000000000000
33
1780.000000000000000
70
1
0
3DFACE
8
LAYER7
10
1459.000000000000000
20
-1368.000000000000000
30
1805.000000000000000
11
1809.000000000000000
21
-1368.000000000000000
31
1780.000000000000000
12
1809.000000000000000
22
-1368.000000000000000
32
1805.000000000000000
13
1459.000000000000000
23
-1368.000000000000000
33
1805.000000000000000
70
1
0
3DFACE
8
LAYER7
10
1809.000000000000000
20
-168.000000000000000
30
1805.000000000000000
11
1809.000000000000000
21
-1368.000000000000000
31
1780.000000000000000
12
1809.000000000000000
22
-168.000000000000000
32
1780.000000000000000
13
1809.000000000000000
23
-168.000000000000000
33
1805.000000000000000
70
1
0
3DFACE
8
LAYER7
10
1809.000000000000000
20
-1368.000000000000000
30
1780.000000000000000
11
1809.000000000000000
21
-168.000000000000000
31
1805.000000000000000
12
1809.000000000000000
22
-1368.000000000000000
32
1805.000000000000000
13
1809.000000000000000
23
-1368.000000000000000
33
1780.000000000000000
70
1
0
3DFACE
8
LAYER7
10
1459.000000000000000
20
-1368.000000000000000
30
1805.000000000000000
11
1809.000000000000000
21
-168.000000000000000
31
1805.000000000000000
12
1459.000000000000000
22
-168.000000000000000
32
1805.000000000000000
13
1459.000000000000000
23
-1368.000000000000000
33
1805.000000000000000
70
1
0
3DFACE
8
LAYER7
10
1809.000000000000000
20
-168.000000000000000
30
1805.000000000000000
11
1459.000000000000000
21
-1368.000000000000000
31
1805.000000000000000
12
1809.000000000000000
22
-1368.000000000000000
32
1805.000000000000000
13
1809.000000000000000
23
-168.000000000000000
33
1805.000000000000000
70
1
0
3DFACE
8
LAYER8
10
1809.000000000000000
20
-1386.000000000000000
30
1805.000000000000000
11
1459.000000000000000
21
-1386.000000000000000
31
505.000000000000000
12
1809.000000000000000
22
-1386.000000000000000
32
505.000000000000000
13
1809.000000000000000
23
-1386.000000000000000
33
1805.000000000000000
70
1
0
3DFACE
8
LAYER8
10
1459.000000000000000
20
-1386.000000000000000
30
505.000000000000000
11
1809.000000000000000
21
-1386.000000000000000
31
1805.000000000000000
12
1459.000000000000000
22
-1386.000000000000000
32
1805.000000000000000
13
1459.000000000000000
23
-1386.000000000000000
33
505.000000000000000
70
1
0
3DFACE
8
LAYER8
10
1809.000000000000000
20
-1368.000000000000000
30
505.000000000000000
11
1459.000000000000000
21
-1386.000000000000000
31
505.000000000000000
12
1459.000000000000000
22
-1368.000000000000000
32
505.000000000000000
13
1809.000000000000000
23
-1368.000000000000000
33
505.000000000000000
70
1
0
3DFACE
8
LAYER8
10
1459.000000000000000
20
-1386.000000000000000
30
505.000000000000000
11
1809.000000000000000
21
-1368.000000000000000
31
505.000000000000000
12
1809.000000000000000
22
-1386.000000000000000
32
505.000000000000000
13
1459.000000000000000
23
-1386.000000000000000
33
505.000000000000000
70
1
0
3DFACE
8
LAYER8
10
1459.000000000000000
20
-1368.000000000000000
30
1805.000000000000000
11
1459.000000000000000
21
-1386.000000000000000
31
505.000000000000000
12
1459.000000000000000
22
-1386.000000000000000
32
1805.000000000000000
13
1459.000000000000000
23
-1368.000000000000000
33
1805.000000000000000
70
1
0
3DFACE
8
LAYER8
10
1459.000000000000000
20
-1386.000000000000000
30
505.000000000000000
11
1459.000000000000000
21
-1368.000000000000000
31
1805.000000000000000
12
1459.000000000000000
22
-1368.000000000000000
32
505.000000000000000
13
1459.000000000000000
23
-1386.000000000000000
33
505.000000000000000
70
1
0
3DFACE
8
LAYER8
10
1809.000000000000000
20
-1386.000000000000000
30
1805.000000000000000
11
1459.000000000000000
21
-1368.000000000000000
31
1805.000000000000000
12
1459.000000000000000
22
-1386.000000000000000
32
1805.000000000000000
13
1809.000000000000000
23
-1386.000000000000000
33
1805.000000000000000
70
1
0
3DFACE
8
LAYER8
10
1459.000000000000000
20
-1368.000000000000000
30
1805.000000000000000
11
1809.000000000000000
21
-1386.000000000000000
31
1805.000000000000000
12
1809.000000000000000
22
-1368.000000000000000
32
1805.000000000000000
13
1459.000000000000000
23
-1368.000000000000000
33
1805.000000000000000
70
1
0
3DFACE
8
LAYER8
10
1809.000000000000000
20
-1368.000000000000000
30
505.000000000000000
11
1809.000000000000000
21
-1386.000000000000000
31
1805.000000000000000
12
1809.000000000000000
22
-1386.000000000000000
32
505.000000000000000
13
1809.000000000000000
23
-1368.000000000000000
33
505.000000000000000
70
1
0
3DFACE
8
LAYER8
10
1809.000000000000000
20
-1386.000000000000000
30
1805.000000000000000
11
1809.000000000000000
21
-1368.000000000000000
31
505.000000000000000
12
1809.000000000000000
22
-1368.000000000000000
32
1805.000000000000000
13
1809.000000000000000
23
-1386.000000000000000
33
1805.000000000000000
70
1
0
3DFACE
8
LAYER8
10
1459.000000000000000
20
-1368.000000000000000
30
1805.000000000000000
11
1809.000000000000000
21
-1368.000000000000000
31
505.000000000000000
12
1459.000000000000000
22
-1368.000000000000000
32
505.000000000000000
13
1459.000000000000000
23
-1368.000000000000000
33
1805.000000000000000
70
1
0
3DFACE
8
LAYER8
10
1809.000000000000000
20
-1368.000000000000000
30
505.000000000000000
11
1459.000000000000000
21
-1368.000000000000000
31
1805.000000000000000
12
1809.000000000000000
22
-1368.000000000000000
32
1805.000000000000000
13
1809.000000000000000
23
-1368.000000000000000
33
505.000000000000000
70
1
0
3DFACE
8
LAYER9
10
1809.000000000000000
20
-1368.000000000000000
30
930.000000000000000
11
1809.000000000000000
21
-168.000000000000000
31
860.000000000000000
12
1809.000000000000000
22
-168.000000000000000
32
930.000000000000000
13
1809.000000000000000
23
-1368.000000000000000
33
930.000000000000000
70
1
0
3DFACE
8
LAYER9
10
1809.000000000000000
20
-168.000000000000000
30
860.000000000000000
11
1809.000000000000000
21
-1368.000000000000000
31
930.000000000000000
12
1809.000000000000000
22
-1368.000000000000000
32
860.000000000000000
13
1809.000000000000000
23
-168.000000000000000
33
860.000000000000000
70
1
0
3DFACE
8
LAYER9
10
1791.000000000000000
20
-168.000000000000000
30
930.000000000000000
11
1809.000000000000000
21
-168.000000000000000
31
860.000000000000000
12
1791.000000000000000
22
-168.000000000000000
32
860.000000000000000
13
1791.000000000000000
23
-168.000000000000000
33
930.000000000000000
70
1
0
3DFACE
8
LAYER9
10
1809.000000000000000
20
-168.000000000000000
30
860.000000000000000
11
1791.000000000000000
21
-168.000000000000000
31
930.000000000000000
12
1809.000000000000000
22
-168.000000000000000
32
930.000000000000000
13
1809.000000000000000
23
-168.000000000000000
33
860.000000000000000
70
1
0
3DFACE
8
LAYER9
10
1791.000000000000000
20
-1368.000000000000000
30
860.000000000000000
11
1809.000000000000000
21
-168.000000000000000
31
860.000000000000000
12
1809.000000000000000
22
-1368.000000000000000
32
860.000000000000000
13
1791.000000000000000
23
-1368.000000000000000
33
860.000000000000000
70
1
0
3DFACE
8
LAYER9
10
1809.000000000000000
20
-168.000000000000000
30
860.000000000000000
11
1791.000000000000000
21
-1368.000000000000000
31
860.000000000000000
12
1791.000000000000000
22
-168.000000000000000
32
860.000000000000000
13
1809.000000000000000
23
-168.000000000000000
33
860.000000000000000
70
1
0
3DFACE
8
LAYER9
10
1809.000000000000000
20
-1368.000000000000000
30
930.000000000000000
11
1791.000000000000000
21
-1368.000000000000000
31
860.000000000000000
12
1809.000000000000000
22
-1368.000000000000000
32
860.000000000000000
13
1809.000000000000000
23
-1368.000000000000000
33
930.000000000000000
70
1
0
3DFACE
8
LAYER9
10
1791.000000000000000
20
-1368.000000000000000
30
860.000000000000000
11
1809.000000000000000
21
-1368.000000000000000
31
930.000000000000000
12
1791.000000000000000
22
-1368.000000000000000
32
930.000000000000000
13
1791.000000000000000
23
-1368.000000000000000
33
860.000000000000000
70
1
0
3DFACE
8
LAYER9
10
1791.000000000000000
20
-168.000000000000000
30
930.000000000000000
11
1809.000000000000000
21
-1368.000000000000000
31
930.000000000000000
12
1809.000000000000000
22
-168.000000000000000
32
930.000000000000000
13
1791.000000000000000
23
-168.000000000000000
33
930.000000000000000
70
1
0
3DFACE
8
LAYER9
10
1809.000000000000000
20
-1368.000000000000000
30
930.000000000000000
11
1791.000000000000000
21
-168.000000000000000
31
930.000000000000000
12
1791.000000000000000
22
-1368.000000000000000
32
930.000000000000000
13
1809.000000000000000
23
-1368.000000000000000
33
930.000000000000000
70
1
0
3DFACE
8
LAYER9
10
1791.000000000000000
20
-1368.000000000000000
30
860.000000000000000
11
1791.000000000000000
21
-168.000000000000000
31
930.000000000000000
12
1791.000000000000000
22
-168.000000000000000
32
860.000000000000000
13
1791.000000000000000
23
-1368.000000000000000
33
860.000000000000000
70
1
0
3DFACE
8
LAYER9
10
1791.000000000000000
20
-168.000000000000000
30
930.000000000000000
11
1791.000000000000000
21
-1368.000000000000000
31
860.000000000000000
12
1791.000000000000000
22
-1368.000000000000000
32
930.000000000000000
13
1791.000000000000000
23
-168.000000000000000
33
930.000000000000000
70
1
0
3DFACE
8
LAYER10
10
1809.000000000000000
20
-1368.000000000000000
30
1355.000000000000000
11
1809.000000000000000
21
-168.000000000000000
31
1285.000000000000000
12
1809.000000000000000
22
-168.000000000000000
32
1355.000000000000000
13
1809.000000000000000
23
-1368.000000000000000
33
1355.000000000000000
70
1
0
3DFACE
8
LAYER10
10
1809.000000000000000
20
-168.000000000000000
30
1285.000000000000000
11
1809.000000000000000
21
-1368.000000000000000
31
1355.000000000000000
12
1809.000000000000000
22
-1368.000000000000000
32
1285.000000000000000
13
1809.000000000000000
23
-168.000000000000000
33
1285.000000000000000
70
1
0
3DFACE
8
LAYER10
10
1791.000000000000000
20
-168.000000000000000
30
1355.000000000000000
11
1809.000000000000000
21
-168.000000000000000
31
1285.000000000000000
12
1791.000000000000000
22
-168.000000000000000
32
1285.000000000000000
13
1791.000000000000000
23
-168.000000000000000
33
1355.000000000000000
70
1
0
3DFACE
8
LAYER10
10
1809.000000000000000
20
-168.000000000000000
30
1285.000000000000000
11
1791.000000000000000
21
-168.000000000000000
31
1355.000000000000000
12
1809.000000000000000
22
-168.000000000000000
32
1355.000000000000000
13
1809.000000000000000
23
-168.000000000000000
33
1285.000000000000000
70
1
0
3DFACE
8
LAYER10
10
1791.000000000000000
20
-1368.000000000000000
30
1285.000000000000000
11
1809.000000000000000
21
-168.000000000000000
31
1285.000000000000000
12
1809.000000000000000
22
-1368.000000000000000
32
1285.000000000000000
13
1791.000000000000000
23
-1368.000000000000000
33
1285.000000000000000
70
1
0
3DFACE
8
LAYER10
10
1809.000000000000000
20
-168.000000000000000
30
1285.000000000000000
11
1791.000000000000000
21
-1368.000000000000000
31
1285.000000000000000
12
1791.000000000000000
22
-168.000000000000000
32
1285.000000000000000
13
1809.000000000000000
23
-168.000000000000000
33
1285.000000000000000
70
1
0
3DFACE
8
LAYER10
10
1809.000000000000000
20
-1368.000000000000000
30
1355.000000000000000
11
1791.000000000000000
21
-1368.000000000000000
31
1285.000000000000000
12
1809.000000000000000
22
-1368.000000000000000
32
1285.000000000000000
13
1809.000000000000000
23
-1368.000000000000000
33
1355.000000000000000
70
1
0
3DFACE
8
LAYER10
10
1791.000000000000000
20
-1368.000000000000000
30
1285.000000000000000
11
1809.000000000000000
21
-1368.000000000000000
31
1355.000000000000000
12
1791.000000000000000
22
-1368.000000000000000
32
1355.000000000000000
13
1791.000000000000000
23
-1368.000000000000000
33
1285.000000000000000
70
1
0
3DFACE
8
LAYER10
10
1791.000000000000000
20
-168.000000000000000
30
1355.000000000000000
11
1809.000000000000000
21
-1368.000000000000000
31
1355.000000000000000
12
1809.000000000000000
22
-168.000000000000000
32
1355.000000000000000
13
1791.000000000000000
23
-168.000000000000000
33
1355.000000000000000
70
1
0
3DFACE
8
LAYER10
10
1809.000000000000000
20
-1368.000000000000000
30
1355.000000000000000
11
1791.000000000000000
21
-168.000000000000000
31
1355.000000000000000
12
1791.000000000000000
22
-1368.000000000000000
32
1355.000000000000000
13
1809.000000000000000
23
-1368.000000000000000
33
1355.000000000000000
70
1
0
3DFACE
8
LAYER10
10
1791.000000000000000
20
-1368.000000000000000
30
1285.000000000000000
11
1791.000000000000000
21
-168.000000000000000
31
1355.000000000000000
12
1791.000000000000000
22
-168.000000000000000
32
1285.000000000000000
13
1791.000000000000000
23
-1368.000000000000000
33
1285.000000000000000
70
1
0
3DFACE
8
LAYER10
10
1791.000000000000000
20
-168.000000000000000
30
1355.000000000000000
11
1791.000000000000000
21
-1368.000000000000000
31
1285.000000000000000
12
1791.000000000000000
22
-1368.000000000000000
32
1355.000000000000000
13
1791.000000000000000
23
-168.000000000000000
33
1355.000000000000000
70
1
0
3DFACE
8
LAYER11
10
1809.000000000000000
20
-1368.000000000000000
30
1780.000000000000000
11
1809.000000000000000
21
-168.000000000000000
31
1710.000000000000000
12
1809.000000000000000
22
-168.000000000000000
32
1780.000000000000000
13
1809.000000000000000
23
-1368.000000000000000
33
1780.000000000000000
70
1
0
3DFACE
8
LAYER11
10
1809.000000000000000
20
-168.000000000000000
30
1710.000000000000000
11
1809.000000000000000
21
-1368.000000000000000
31
1780.000000000000000
12
1809.000000000000000
22
-1368.000000000000000
32
1710.000000000000000
13
1809.000000000000000
23
-168.000000000000000
33
1710.000000000000000
70
1
0
3DFACE
8
LAYER11
10
1791.000000000000000
20
-168.000000000000000
30
1780.000000000000000
11
1809.000000000000000
21
-168.000000000000000
31
1710.000000000000000
12
1791.000000000000000
22
-168.000000000000000
32
1710.000000000000000
13
1791.000000000000000
23
-168.000000000000000
33
1780.000000000000000
70
1
0
3DFACE
8
LAYER11
10
1809.000000000000000
20
-168.000000000000000
30
1710.000000000000000
11
1791.000000000000000
21
-168.000000000000000
31
1780.000000000000000
12
1809.000000000000000
22
-168.000000000000000
32
1780.000000000000000
13
1809.000000000000000
23
-168.000000000000000
33
1710.000000000000000
70
1
0
3DFACE
8
LAYER11
10
1791.000000000000000
20
-1368.000000000000000
30
1710.000000000000000
11
1809.000000000000000
21
-168.000000000000000
31
1710.000000000000000
12
1809.000000000000000
22
-1368.000000000000000
32
1710.000000000000000
13
1791.000000000000000
23
-1368.000000000000000
33
1710.000000000000000
70
1
0
3DFACE
8
LAYER11
10
1809.000000000000000
20
-168.000000000000000
30
1710.000000000000000
11
1791.000000000000000
21
-1368.000000000000000
31
1710.000000000000000
12
1791.000000000000000
22
-168.000000000000000
32
1710.000000000000000
13
1809.000000000000000
23
-168.000000000000000
33
1710.000000000000000
70
1
0
3DFACE
8
LAYER11
10
1809.000000000000000
20
-1368.000000000000000
30
1780.000000000000000
11
1791.000000000000000
21
-1368.000000000000000
31
1710.000000000000000
12
1809.000000000000000
22
-1368.000000000000000
32
1710.000000000000000
13
1809.000000000000000
23
-1368.000000000000000
33
1780.000000000000000
70
1
0
3DFACE
8
LAYER11
10
1791.000000000000000
20
-1368.000000000000000
30
1710.000000000000000
11
1809.000000000000000
21
-1368.000000000000000
31
1780.000000000000000
12
1791.000000000000000
22
-1368.000000000000000
32
1780.000000000000000
13
1791.000000000000000
23
-1368.000000000000000
33
1710.000000000000000
70
1
0
3DFACE
8
LAYER11
10
1791.000000000000000
20
-168.000000000000000
30
1780.000000000000000
11
1809.000000000000000
21
-1368.000000000000000
31
1780.000000000000000
12
1809.000000000000000
22
-168.000000000000000
32
1780.000000000000000
13
1791.000000000000000
23
-168.000000000000000
33
1780.000000000000000
70
1
0
3DFACE
8
LAYER11
10
1809.000000000000000
20
-1368.000000000000000
30
1780.000000000000000
11
1791.000000000000000
21
-168.000000000000000
31
1780.000000000000000
12
1791.000000000000000
22
-1368.000000000000000
32
1780.000000000000000
13
1809.000000000000000
23
-1368.000000000000000
33
1780.000000000000000
70
1
0
3DFACE
8
LAYER11
10
1791.000000000000000
20
-1368.000000000000000
30
1710.000000000000000
11
1791.000000000000000
21
-168.000000000000000
31
1780.000000000000000
12
1791.000000000000000
22
-168.000000000000000
32
1710.000000000000000
13
1791.000000000000000
23
-1368.000000000000000
33
1710.000000000000000
70
1
0
3DFACE
8
LAYER11
10
1791.000000000000000
20
-168.000000000000000
30
1780.000000000000000
11
1791.000000000000000
21
-1368.000000000000000
31
1710.000000000000000
12
1791.000000000000000
22
-1368.000000000000000
32
1780.000000000000000
13
1791.000000000000000
23
-168.000000000000000
33
1780.000000000000000
70
1
0
3DFACE
8
LAYER12
10
1441.600000000000000
20
-1476.436000000000000
30
1805.000000000000000
11
1439.279000000000000
21
-1126.444000000000000
31
505.000000000000000
12
1441.600000000000000
22
-1476.436000000000000
32
505.000000000000000
13
1441.600000000000000
23
-1476.436000000000000
33
1805.000000000000000
70
1
0
3DFACE
8
LAYER12
10
1439.279000000000000
20
-1126.444000000000000
30
505.000000000000000
11
1441.600000000000000
21
-1476.436000000000000
31
1805.000000000000000
12
1439.279000000000000
22
-1126.444000000000000
32
1805.000000000000000
13
1439.279000000000000
23
-1126.444000000000000
33
505.000000000000000
70
1
0
3DFACE
8
LAYER12
10
1459.599000000000000
20
-1476.317000000000000
30
505.000000000000000
11
1439.279000000000000
21
-1126.444000000000000
31
505.000000000000000
12
1457.279000000000000
22
-1126.324000000000000
32
505.000000000000000
13
1459.599000000000000
23
-1476.317000000000000
33
505.000000000000000
70
1
0
3DFACE
8
LAYER12
10
1439.279000000000000
20
-1126.444000000000000
30
505.000000000000000
11
1459.599000000000000
21
-1476.317000000000000
31
505.000000000000000
12
1441.600000000000000
22
-1476.436000000000000
32
505.000000000000000
13
1439.279000000000000
23
-1126.444000000000000
33
505.000000000000000
70
1
0
3DFACE
8
LAYER12
10
1457.279000000000000
20
-1126.324000000000000
30
1805.000000000000000
11
1439.279000000000000
21
-1126.444000000000000
31
505.000000000000000
12
1439.279000000000000
22
-1126.444000000000000
32
1805.000000000000000
13
1457.279000000000000
23
-1126.324000000000000
33
1805.000000000000000
70
1
0
3DFACE
8
LAYER12
10
1439.279000000000000
20
-1126.444000000000000
30
505.000000000000000
11
1457.279000000000000
21
-1126.324000000000000
31
1805.000000000000000
12
1457.279000000000000
22
-1126.324000000000000
32
505.000000000000000
13
1439.279000000000000
23
-1126.444000000000000
33
505.000000000000000
70
1
0
3DFACE
8
LAYER12
10
1441.600000000000000
20
-1476.436000000000000
30
1805.000000000000000
11
1457.279000000000000
21
-1126.324000000000000
31
1805.000000000000000
12
1439.279000000000000
22
-1126.444000000000000
32
1805.000000000000000
13
1441.600000000000000
23
-1476.436000000000000
33
1805.000000000000000
70
1
0
3DFACE
8
LAYER12
10
1457.279000000000000
20
-1126.324000000000000
30
1805.000000000000000
11
1441.600000000000000
21
-1476.436000000000000
31
1805.000000000000000
12
1459.599000000000000
22
-1476.317000000000000
32
1805.000000000000000
13
1457.279000000000000
23
-1126.324000000000000
33
1805.000000000000000
70
1
0
3DFACE
8
LAYER12
10
1459.599000000000000
20
-1476.317000000000000
30
505.000000000000000
11
1441.600000000000000
21
-1476.436000000000000
31
1805.000000000000000
12
1441.600000000000000
22
-1476.436000000000000
32
505.000000000000000
13
1459.599000000000000
23
-1476.317000000000000
33
505.000000000000000
70
1
0
3DFACE
8
LAYER12
10
1441.600000000000000
20
-1476.436000000000000
30
1805.000000000000000
11
1459.599000000000000
21
-1476.317000000000000
31
505.000000000000000
12
1459.599000000000000
22
-1476.317000000000000
32
1805.000000000000000
13
1441.600000000000000
23
-1476.436000000000000
33
1805.000000000000000
70
1
0
3DFACE
8
LAYER12
10
1457.279000000000000
20
-1126.324000000000000
30
1805.000000000000000
11
1459.599000000000000
21
-1476.317000000000000
31
505.000000000000000
12
1457.279000000000000
22
-1126.324000000000000
32
505.000000000000000
13
1457.279000000000000
23
-1126.324000000000000
33
1805.000000000000000
70
1
0
3DFACE
8
LAYER12
10
1459.599000000000000
20
-1476.317000000000000
30
505.000000000000000
11
1457.279000000000000
21
-1126.324000000000000
31
1805.000000000000000
12
1459.599000000000000
22
-1476.317000000000000
32
1805.000000000000000
13
1459.599000000000000
23
-1476.317000000000000
33
505.000000000000000
70
1
0
3DFACE
8
LAYER13
10
150.000500000000000
20
-1485.000000000000000
30
1805.000000000000000
11
147.679900000000000
21
-1135.008000000000000
31
505.000400000000000
12
150.000500000000000
22
-1485.000000000000000
32
505.000400000000000
13
150.000500000000000
23
-1485.000000000000000
33
1805.000000000000000
70
1
0
3DFACE
8
LAYER13
10
147.679900000000000
20
-1135.008000000000000
30
505.000400000000000
11
150.000500000000000
21
-1485.000000000000000
31
1805.000000000000000
12
147.679900000000000
22
-1135.008000000000000
32
1805.000000000000000
13
147.679900000000000
23
-1135.008000000000000
33
505.000400000000000
70
1
0
3DFACE
8
LAYER13
10
168.000100000000000
20
-1484.881000000000000
30
505.000400000000000
11
147.679900000000000
21
-1135.008000000000000
31
505.000400000000000
12
165.679400000000000
22
-1134.888000000000000
32
505.000400000000000
13
168.000100000000000
23
-1484.881000000000000
33
505.000400000000000
70
1
0
3DFACE
8
LAYER13
10
147.679900000000000
20
-1135.008000000000000
30
505.000400000000000
11
168.000100000000000
21
-1484.881000000000000
31
505.000400000000000
12
150.000500000000000
22
-1485.000000000000000
32
505.000400000000000
13
147.679900000000000
23
-1135.008000000000000
33
505.000400000000000
70
1
0
3DFACE
8
LAYER13
10
165.679500000000000
20
-1134.888000000000000
30
1805.000000000000000
11
147.679900000000000
21
-1135.008000000000000
31
505.000400000000000
12
147.679900000000000
22
-1135.008000000000000
32
1805.000000000000000
13
165.679500000000000
23
-1134.888000000000000
33
1805.000000000000000
70
1
0
3DFACE
8
LAYER13
10
147.679900000000000
20
-1135.008000000000000
30
505.000400000000000
11
165.679500000000000
21
-1134.888000000000000
31
1805.000000000000000
12
165.679400000000000
22
-1134.888000000000000
32
505.000400000000000
13
147.679900000000000
23
-1135.008000000000000
33
505.000400000000000
70
1
0
3DFACE
8
LAYER13
10
150.000500000000000
20
-1485.000000000000000
30
1805.000000000000000
11
165.679500000000000
21
-1134.888000000000000
31
1805.000000000000000
12
147.679900000000000
22
-1135.008000000000000
32
1805.000000000000000
13
150.000500000000000
23
-1485.000000000000000
33
1805.000000000000000
70
1
0
3DFACE
8
LAYER13
10
165.679500000000000
20
-1134.888000000000000
30
1805.000000000000000
11
150.000500000000000
21
-1485.000000000000000
31
1805.000000000000000
12
168.000100000000000
22
-1484.881000000000000
32
1805.000000000000000
13
165.679500000000000
23
-1134.888000000000000
33
1805.000000000000000
70
1
0
3DFACE
8
LAYER13
10
168.000100000000000
20
-1484.881000000000000
30
505.000400000000000
11
150.000500000000000
21
-1485.000000000000000
31
1805.000000000000000
12
150.000500000000000
22
-1485.000000000000000
32
505.000400000000000
13
168.000100000000000
23
-1484.881000000000000
33
505.000400000000000
70
1
0
3DFACE
8
LAYER13
10
150.000500000000000
20
-1485.000000000000000
30
1805.000000000000000
11
168.000100000000000
21
-1484.881000000000000
31
505.000400000000000
12
168.000100000000000
22
-1484.881000000000000
32
1805.000000000000000
13
150.000500000000000
23
-1485.000000000000000
33
1805.000000000000000
70
1
0
3DFACE
8
LAYER13
10
165.679500000000000
20
-1134.888000000000000
30
1805.000000000000000
11
168.000100000000000
21
-1484.881000000000000
31
505.000400000000000
12
165.679400000000000
22
-1134.888000000000000
32
505.000400000000000
13
165.679500000000000
23
-1134.888000000000000
33
1805.000000000000000
70
1
0
3DFACE
8
LAYER13
10
168.000100000000000
20
-1484.881000000000000
30
505.000400000000000
11
165.679500000000000
21
-1134.888000000000000
31
1805.000000000000000
12
168.000100000000000
22
-1484.881000000000000
32
1805.000000000000000
13
168.000100000000000
23
-1484.881000000000000
33
505.000400000000000
70
1
0
3DFACE
8
LAYER14
10
167.996700000000000
20
-1484.881000000000000
30
929.998300000000000
11
1439.278000000000000
21
-1126.444000000000000
31
929.998300000000000
12
1441.599000000000000
22
-1476.436000000000000
32
929.998300000000000
13
167.996700000000000
23
-1484.881000000000000
33
929.998300000000000
70
1
0
3DFACE
8
LAYER14
10
1439.278000000000000
20
-1126.444000000000000
30
929.998300000000000
11
167.996700000000000
21
-1484.881000000000000
31
929.998300000000000
12
165.676000000000000
22
-1134.888000000000000
32
929.998300000000000
13
1439.278000000000000
23
-1126.444000000000000
33
929.998300000000000
70
1
0
3DFACE
8
LAYER14
10
1441.599000000000000
20
-1476.436000000000000
30
954.998300000000000
11
1439.278000000000000
21
-1126.444000000000000
31
929.998300000000000
12
1439.278000000000000
22
-1126.444000000000000
32
954.998300000000000
13
1441.599000000000000
23
-1476.436000000000000
33
954.998300000000000
70
1
0
3DFACE
8
LAYER14
10
1439.278000000000000
20
-1126.444000000000000
30
929.998300000000000
11
1441.599000000000000
21
-1476.436000000000000
31
954.998300000000000
12
1441.599000000000000
22
-1476.436000000000000
32
929.998300000000000
13
1439.278000000000000
23
-1126.444000000000000
33
929.998300000000000
70
1
0
3DFACE
8
LAYER14
10
165.676000000000000
20
-1134.888000000000000
30
954.998300000000000
11
1439.278000000000000
21
-1126.444000000000000
31
929.998300000000000
12
165.676000000000000
22
-1134.888000000000000
32
929.998300000000000
13
165.676000000000000
23
-1134.888000000000000
33
954.998300000000000
70
1
0
3DFACE
8
LAYER14
10
1439.278000000000000
20
-1126.444000000000000
30
929.998300000000000
11
165.676000000000000
21
-1134.888000000000000
31
954.998300000000000
12
1439.278000000000000
22
-1126.444000000000000
32
954.998300000000000
13
1439.278000000000000
23
-1126.444000000000000
33
929.998300000000000
70
1
0
3DFACE
8
LAYER14
10
167.996700000000000
20
-1484.881000000000000
30
929.998300000000000
11
165.676000000000000
21
-1134.888000000000000
31
954.998300000000000
12
165.676000000000000
22
-1134.888000000000000
32
929.998300000000000
13
167.996700000000000
23
-1484.881000000000000
33
929.998300000000000
70
1
0
3DFACE
8
LAYER14
10
165.676000000000000
20
-1134.888000000000000
30
954.998300000000000
11
167.996700000000000
21
-1484.881000000000000
31
929.998300000000000
12
167.996700000000000
22
-1484.881000000000000
32
954.998300000000000
13
165.676000000000000
23
-1134.888000000000000
33
954.998300000000000
70
1
0
3DFACE
8
LAYER14
10
1441.599000000000000
20
-1476.436000000000000
30
954.998300000000000
11
167.996700000000000
21
-1484.881000000000000
31
929.998300000000000
12
1441.599000000000000
22
-1476.436000000000000
32
929.998300000000000
13
1441.599000000000000
23
-1476.436000000000000
33
954.998300000000000
70
1
0
3DFACE
8
LAYER14
10
167.996700000000000
20
-1484.881000000000000
30
929.998300000000000
11
1441.599000000000000
21
-1476.436000000000000
31
954.998300000000000
12
167.996700000000000
22
-1484.881000000000000
32
954.998300000000000
13
167.996700000000000
23
-1484.881000000000000
33
929.998300000000000
70
1
0
3DFACE
8
LAYER14
10
165.676000000000000
20
-1134.888000000000000
30
954.998300000000000
11
1441.599000000000000
21
-1476.436000000000000
31
954.998300000000000
12
1439.278000000000000
22
-1126.444000000000000
32
954.998300000000000
13
165.676000000000000
23
-1134.888000000000000
33
954.998300000000000
70
1
0
3DFACE
8
LAYER14
10
1441.599000000000000
20
-1476.436000000000000
30
954.998300000000000
11
165.676000000000000
21
-1134.888000000000000
31
954.998300000000000
12
167.996700000000000
22
-1484.881000000000000
32
954.998300000000000
13
1441.599000000000000
23
-1476.436000000000000
33
954.998300000000000
70
1
0
3DFACE
8
LAYER15
10
167.996700000000000
20
-1484.881000000000000
30
1354.999000000000000
11
1439.278000000000000
21
-1126.444000000000000
31
1354.999000000000000
12
1441.599000000000000
22
-1476.436000000000000
32
1354.999000000000000
13
167.996700000000000
23
-1484.881000000000000
33
1354.999000000000000
70
1
0
3DFACE
8
LAYER15
10
1439.278000000000000
20
-1126.444000000000000
30
1354.999000000000000
11
167.996700000000000
21
-1484.881000000000000
31
1354.999000000000000
12
165.676000000000000
22
-1134.888000000000000
32
1354.999000000000000
13
1439.278000000000000
23
-1126.444000000000000
33
1354.999000000000000
70
1
0
3DFACE
8
LAYER15
10
1441.599000000000000
20
-1476.436000000000000
30
1379.999000000000000
11
1439.278000000000000
21
-1126.444000000000000
31
1354.999000000000000
12
1439.278000000000000
22
-1126.444000000000000
32
1379.999000000000000
13
1441.599000000000000
23
-1476.436000000000000
33
1379.999000000000000
70
1
0
3DFACE
8
LAYER15
10
1439.278000000000000
20
-1126.444000000000000
30
1354.999000000000000
11
1441.599000000000000
21
-1476.436000000000000
31
1379.999000000000000
12
1441.599000000000000
22
-1476.436000000000000
32
1354.999000000000000
13
1439.278000000000000
23
-1126.444000000000000
33
1354.999000000000000
70
1
0
3DFACE
8
LAYER15
10
165.676000000000000
20
-1134.888000000000000
30
1379.999000000000000
11
1439.278000000000000
21
-1126.444000000000000
31
1354.999000000000000
12
165.676000000000000
22
-1134.888000000000000
32
1354.999000000000000
13
165.676000000000000
23
-1134.888000000000000
33
1379.999000000000000
70
1
0
3DFACE
8
LAYER15
10
1439.278000000000000
20
-1126.444000000000000
30
1354.999000000000000
11
165.676000000000000
21
-1134.888000000000000
31
1379.999000000000000
12
1439.278000000000000
22
-1126.444000000000000
32
1379.999000000000000
13
1439.278000000000000
23
-1126.444000000000000
33
1354.999000000000000
70
1
0
3DFACE
8
LAYER15
10
167.996700000000000
20
-1484.881000000000000
30
1354.999000000000000
11
165.676000000000000
21
-1134.888000000000000
31
1379.999000000000000
12
165.676000000000000
22
-1134.888000000000000
32
1354.999000000000000
13
167.996700000000000
23
-1484.881000000000000
33
1354.999000000000000
70
1
0
3DFACE
8
LAYER15
10
165.676000000000000
20
-1134.888000000000000
30
1379.999000000000000
11
167.996700000000000
21
-1484.881000000000000
31
1354.999000000000000
12
167.996700000000000
22
-1484.881000000000000
32
1379.999000000000000
13
165.676000000000000
23
-1134.888000000000000
33
1379.999000000000000
70
1
0
3DFACE
8
LAYER15
10
1441.599000000000000
20
-1476.436000000000000
30
1379.999000000000000
11
167.996700000000000
21
-1484.881000000000000
31
1354.999000000000000
12
1441.599000000000000
22
-1476.436000000000000
32
1354.999000000000000
13
1441.599000000000000
23
-1476.436000000000000
33
1379.999000000000000
70
1
0
3DFACE
8
LAYER15
10
167.996700000000000
20
-1484.881000000000000
30
1354.999000000000000
11
1441.599000000000000
21
-1476.436000000000000
31
1379.999000000000000
12
167.996700000000000
22
-1484.881000000000000
32
1379.999000000000000
13
167.996700000000000
23
-1484.881000000000000
33
1354.999000000000000
70
1
0
3DFACE
8
LAYER15
10
165.676000000000000
20
-1134.888000000000000
30
1379.999000000000000
11
1441.599000000000000
21
-1476.436000000000000
31
1379.999000000000000
12
1439.278000000000000
22
-1126.444000000000000
32
1379.999000000000000
13
165.676000000000000
23
-1134.888000000000000
33
1379.999000000000000
70
1
0
3DFACE
8
LAYER15
10
1441.599000000000000
20
-1476.436000000000000
30
1379.999000000000000
11
165.676000000000000
21
-1134.888000000000000
31
1379.999000000000000
12
167.996700000000000
22
-1484.881000000000000
32
1379.999000000000000
13
1441.599000000000000
23
-1476.436000000000000
33
1379.999000000000000
70
1
0
3DFACE
8
LAYER16
10
163.356700000000000
20
-1484.912000000000000
30
1780.000000000000000
11
1434.638000000000000
21
-1126.475000000000000
31
1780.000000000000000
12
1436.959000000000000
22
-1476.467000000000000
32
1780.000000000000000
13
163.356700000000000
23
-1484.912000000000000
33
1780.000000000000000
70
1
0
3DFACE
8
LAYER16
10
1434.638000000000000
20
-1126.475000000000000
30
1780.000000000000000
11
163.356700000000000
21
-1484.912000000000000
31
1780.000000000000000
12
161.036000000000000
22
-1134.919000000000000
32
1780.000000000000000
13
1434.638000000000000
23
-1126.475000000000000
33
1780.000000000000000
70
1
0
3DFACE
8
LAYER16
10
1436.959000000000000
20
-1476.467000000000000
30
1805.000000000000000
11
1434.638000000000000
21
-1126.475000000000000
31
1780.000000000000000
12
1434.638000000000000
22
-1126.475000000000000
32
1805.000000000000000
13
1436.959000000000000
23
-1476.467000000000000
33
1805.000000000000000
70
1
0
3DFACE
8
LAYER16
10
1434.638000000000000
20
-1126.475000000000000
30
1780.000000000000000
11
1436.959000000000000
21
-1476.467000000000000
31
1805.000000000000000
12
1436.959000000000000
22
-1476.467000000000000
32
1780.000000000000000
13
1434.638000000000000
23
-1126.475000000000000
33
1780.000000000000000
70
1
0
3DFACE
8
LAYER16
10
161.036000000000000
20
-1134.919000000000000
30
1805.000000000000000
11
1434.638000000000000
21
-1126.475000000000000
31
1780.000000000000000
12
161.036000000000000
22
-1134.919000000000000
32
1780.000000000000000
13
161.036000000000000
23
-1134.919000000000000
33
1805.000000000000000
70
1
0
3DFACE
8
LAYER16
10
1434.638000000000000
20
-1126.475000000000000
30
1780.000000000000000
11
161.036000000000000
21
-1134.919000000000000
31
1805.000000000000000
12
1434.638000000000000
22
-1126.475000000000000
32
1805.000000000000000
13
1434.638000000000000
23
-1126.475000000000000
33
1780.000000000000000
70
1
0
3DFACE
8
LAYER16
10
163.356700000000000
20
-1484.912000000000000
30
1780.000000000000000
11
161.036000000000000
21
-1134.919000000000000
31
1805.000000000000000
12
161.036000000000000
22
-1134.919000000000000
32
1780.000000000000000
13
163.356700000000000
23
-1484.912000000000000
33
1780.000000000000000
70
1
0
3DFACE
8
LAYER16
10
161.036000000000000
20
-1134.919000000000000
30
1805.000000000000000
11
163.356700000000000
21
-1484.912000000000000
31
1780.000000000000000
12
163.356700000000000
22
-1484.912000000000000
32
1805.000000000000000
13
161.036000000000000
23
-1134.919000000000000
33
1805.000000000000000
70
1
0
3DFACE
8
LAYER16
10
1436.959000000000000
20
-1476.467000000000000
30
1805.000000000000000
11
163.356700000000000
21
-1484.912000000000000
31
1780.000000000000000
12
1436.959000000000000
22
-1476.467000000000000
32
1780.000000000000000
13
1436.959000000000000
23
-1476.467000000000000
33
1805.000000000000000
70
1
0
3DFACE
8
LAYER16
10
163.356700000000000
20
-1484.912000000000000
30
1780.000000000000000
11
1436.959000000000000
21
-1476.467000000000000
31
1805.000000000000000
12
163.356700000000000
22
-1484.912000000000000
32
1805.000000000000000
13
163.356700000000000
23
-1484.912000000000000
33
1780.000000000000000
70
1
0
3DFACE
8
LAYER16
10
161.036000000000000
20
-1134.919000000000000
30
1805.000000000000000
11
1436.959000000000000
21
-1476.467000000000000
31
1805.000000000000000
12
1434.638000000000000
22
-1126.475000000000000
32
1805.000000000000000
13
161.036000000000000
23
-1134.919000000000000
33
1805.000000000000000
70
1
0
3DFACE
8
LAYER16
10
1436.959000000000000
20
-1476.467000000000000
30
1805.000000000000000
11
161.036000000000000
21
-1134.919000000000000
31
1805.000000000000000
12
163.356700000000000
22
-1484.912000000000000
32
1805.000000000000000
13
1436.959000000000000
23
-1476.467000000000000
33
1805.000000000000000
70
1
0
3DFACE
8
LAYER17
10
167.997700000000000
20
-1484.881000000000000
30
930.001500000000000
11
1441.600000000000000
21
-1476.436000000000000
31
860.001500000000000
12
1441.600000000000000
22
-1476.436000000000000
32
930.001500000000000
13
167.997700000000000
23
-1484.881000000000000
33
930.001500000000000
70
1
0
3DFACE
8
LAYER17
10
1441.600000000000000
20
-1476.436000000000000
30
860.001500000000000
11
167.997700000000000
21
-1484.881000000000000
31
930.001500000000000
12
167.997700000000000
22
-1484.881000000000000
32
860.001500000000000
13
1441.600000000000000
23
-1476.436000000000000
33
860.001500000000000
70
1
0
3DFACE
8
LAYER17
10
1441.480000000000000
20
-1458.436000000000000
30
930.001500000000000
11
1441.600000000000000
21
-1476.436000000000000
31
860.001500000000000
12
1441.480000000000000
22
-1458.436000000000000
32
860.001500000000000
13
1441.480000000000000
23
-1458.436000000000000
33
930.001500000000000
70
1
0
3DFACE
8
LAYER17
10
1441.600000000000000
20
-1476.436000000000000
30
860.001500000000000
11
1441.480000000000000
21
-1458.436000000000000
31
930.001500000000000
12
1441.600000000000000
22
-1476.436000000000000
32
930.001500000000000
13
1441.600000000000000
23
-1476.436000000000000
33
860.001500000000000
70
1
0
3DFACE
8
LAYER17
10
167.878300000000000
20
-1466.881000000000000
30
860.001500000000000
11
1441.600000000000000
21
-1476.436000000000000
31
860.001500000000000
12
167.997700000000000
22
-1484.881000000000000
32
860.001500000000000
13
167.878300000000000
23
-1466.881000000000000
33
860.001500000000000
70
1
0
3DFACE
8
LAYER17
10
1441.600000000000000
20
-1476.436000000000000
30
860.001500000000000
11
167.878300000000000
21
-1466.881000000000000
31
860.001500000000000
12
1441.480000000000000
22
-1458.436000000000000
32
860.001500000000000
13
1441.600000000000000
23
-1476.436000000000000
33
860.001500000000000
70
1
0
3DFACE
8
LAYER17
10
167.997700000000000
20
-1484.881000000000000
30
930.001500000000000
11
167.878300000000000
21
-1466.881000000000000
31
860.001500000000000
12
167.997700000000000
22
-1484.881000000000000
32
860.001500000000000
13
167.997700000000000
23
-1484.881000000000000
33
930.001500000000000
70
1
0
3DFACE
8
LAYER17
10
167.878300000000000
20
-1466.881000000000000
30
860.001500000000000
11
167.997700000000000
21
-1484.881000000000000
31
930.001500000000000
12
167.878300000000000
22
-1466.881000000000000
32
930.001500000000000
13
167.878300000000000
23
-1466.881000000000000
33
860.001500000000000
70
1
0
3DFACE
8
LAYER17
10
1441.480000000000000
20
-1458.436000000000000
30
930.001500000000000
11
167.997700000000000
21
-1484.881000000000000
31
930.001500000000000
12
1441.600000000000000
22
-1476.436000000000000
32
930.001500000000000
13
1441.480000000000000
23
-1458.436000000000000
33
930.001500000000000
70
1
0
3DFACE
8
LAYER17
10
167.997700000000000
20
-1484.881000000000000
30
930.001500000000000
11
1441.480000000000000
21
-1458.436000000000000
31
930.001500000000000
12
167.878300000000000
22
-1466.881000000000000
32
930.001500000000000
13
167.997700000000000
23
-1484.881000000000000
33
930.001500000000000
70
1
0
3DFACE
8
LAYER17
10
167.878300000000000
20
-1466.881000000000000
30
860.001500000000000
11
1441.480000000000000
21
-1458.436000000000000
31
930.001500000000000
12
1441.480000000000000
22
-1458.436000000000000
32
860.001500000000000
13
167.878300000000000
23
-1466.881000000000000
33
860.001500000000000
70
1
0
3DFACE
8
LAYER17
10
1441.480000000000000
20
-1458.436000000000000
30
930.001500000000000
11
167.878300000000000
21
-1466.881000000000000
31
860.001500000000000
12
167.878300000000000
22
-1466.881000000000000
32
930.001500000000000
13
1441.480000000000000
23
-1458.436000000000000
33
930.001500000000000
70
1
0
3DFACE
8
LAYER18
10
167.997700000000000
20
-1484.881000000000000
30
1354.999000000000000
11
1441.600000000000000
21
-1476.436000000000000
31
1284.999000000000000
12
1441.600000000000000
22
-1476.436000000000000
32
1354.999000000000000
13
167.997700000000000
23
-1484.881000000000000
33
1354.999000000000000
70
1
0
3DFACE
8
LAYER18
10
1441.600000000000000
20
-1476.436000000000000
30
1284.999000000000000
11
167.997700000000000
21
-1484.881000000000000
31
1354.999000000000000
12
167.997700000000000
22
-1484.881000000000000
32
1284.999000000000000
13
1441.600000000000000
23
-1476.436000000000000
33
1284.999000000000000
70
1
0
3DFACE
8
LAYER18
10
1441.480000000000000
20
-1458.436000000000000
30
1354.999000000000000
11
1441.600000000000000
21
-1476.436000000000000
31
1284.999000000000000
12
1441.480000000000000
22
-1458.436000000000000
32
1284.999000000000000
13
1441.480000000000000
23
-1458.436000000000000
33
1354.999000000000000
70
1
0
3DFACE
8
LAYER18
10
1441.600000000000000
20
-1476.436000000000000
30
1284.999000000000000
11
1441.480000000000000
21
-1458.436000000000000
31
1354.999000000000000
12
1441.600000000000000
22
-1476.436000000000000
32
1354.999000000000000
13
1441.600000000000000
23
-1476.436000000000000
33
1284.999000000000000
70
1
0
3DFACE
8
LAYER18
10
167.878300000000000
20
-1466.881000000000000
30
1284.999000000000000
11
1441.600000000000000
21
-1476.436000000000000
31
1284.999000000000000
12
167.997700000000000
22
-1484.881000000000000
32
1284.999000000000000
13
167.878300000000000
23
-1466.881000000000000
33
1284.999000000000000
70
1
0
3DFACE
8
LAYER18
10
1441.600000000000000
20
-1476.436000000000000
30
1284.999000000000000
11
167.878300000000000
21
-1466.881000000000000
31
1284.999000000000000
12
1441.480000000000000
22
-1458.436000000000000
32
1284.999000000000000
13
1441.600000000000000
23
-1476.436000000000000
33
1284.999000000000000
70
1
0
3DFACE
8
LAYER18
10
167.997700000000000
20
-1484.881000000000000
30
1354.999000000000000
11
167.878300000000000
21
-1466.881000000000000
31
1284.999000000000000
12
167.997700000000000
22
-1484.881000000000000
32
1284.999000000000000
13
167.997700000000000
23
-1484.881000000000000
33
1354.999000000000000
70
1
0
3DFACE
8
LAYER18
10
167.878300000000000
20
-1466.881000000000000
30
1284.999000000000000
11
167.997700000000000
21
-1484.881000000000000
31
1354.999000000000000
12
167.878300000000000
22
-1466.881000000000000
32
1354.999000000000000
13
167.878300000000000
23
-1466.881000000000000
33
1284.999000000000000
70
1
0
3DFACE
8
LAYER18
10
1441.480000000000000
20
-1458.436000000000000
30
1354.999000000000000
11
167.997700000000000
21
-1484.881000000000000
31
1354.999000000000000
12
1441.600000000000000
22
-1476.436000000000000
32
1354.999000000000000
13
1441.480000000000000
23
-1458.436000000000000
33
1354.999000000000000
70
1
0
3DFACE
8
LAYER18
10
167.997700000000000
20
-1484.881000000000000
30
1354.999000000000000
11
1441.480000000000000
21
-1458.436000000000000
31
1354.999000000000000
12
167.878300000000000
22
-1466.881000000000000
32
1354.999000000000000
13
167.997700000000000
23
-1484.881000000000000
33
1354.999000000000000
70
1
0
3DFACE
8
LAYER18
10
167.878300000000000
20
-1466.881000000000000
30
1284.999000000000000
11
1441.480000000000000
21
-1458.436000000000000
31
1354.999000000000000
12
1441.480000000000000
22
-1458.436000000000000
32
1284.999000000000000
13
167.878300000000000
23
-1466.881000000000000
33
1284.999000000000000
70
1
0
3DFACE
8
LAYER18
10
1441.480000000000000
20
-1458.436000000000000
30
1354.999000000000000
11
167.878300000000000
21
-1466.881000000000000
31
1284.999000000000000
12
167.878300000000000
22
-1466.881000000000000
32
1354.999000000000000
13
1441.480000000000000
23
-1458.436000000000000
33
1354.999000000000000
70
1
0
3DFACE
8
LAYER19
10
167.997700000000000
20
-1484.881000000000000
30
1779.999000000000000
11
1441.600000000000000
21
-1476.436000000000000
31
1709.999000000000000
12
1441.600000000000000
22
-1476.436000000000000
32
1779.999000000000000
13
167.997700000000000
23
-1484.881000000000000
33
1779.999000000000000
70
1
0
3DFACE
8
LAYER19
10
1441.600000000000000
20
-1476.436000000000000
30
1709.999000000000000
11
167.997700000000000
21
-1484.881000000000000
31
1779.999000000000000
12
167.997700000000000
22
-1484.881000000000000
32
1709.999000000000000
13
1441.600000000000000
23
-1476.436000000000000
33
1709.999000000000000
70
1
0
3DFACE
8
LAYER19
10
1441.480000000000000
20
-1458.436000000000000
30
1779.999000000000000
11
1441.600000000000000
21
-1476.436000000000000
31
1709.999000000000000
12
1441.480000000000000
22
-1458.436000000000000
32
1709.999000000000000
13
1441.480000000000000
23
-1458.436000000000000
33
1779.999000000000000
70
1
0
3DFACE
8
LAYER19
10
1441.600000000000000
20
-1476.436000000000000
30
1709.999000000000000
11
1441.480000000000000
21
-1458.436000000000000
31
1779.999000000000000
12
1441.600000000000000
22
-1476.436000000000000
32
1779.999000000000000
13
1441.600000000000000
23
-1476.436000000000000
33
1709.999000000000000
70
1
0
3DFACE
8
LAYER19
10
167.878300000000000
20
-1466.881000000000000
30
1709.999000000000000
11
1441.600000000000000
21
-1476.436000000000000
31
1709.999000000000000
12
167.997700000000000
22
-1484.881000000000000
32
1709.999000000000000
13
167.878300000000000
23
-1466.881000000000000
33
1709.999000000000000
70
1
0
3DFACE
8
LAYER19
10
1441.600000000000000
20
-1476.436000000000000
30
1709.999000000000000
11
167.878300000000000
21
-1466.881000000000000
31
1709.999000000000000
12
1441.480000000000000
22
-1458.436000000000000
32
1709.999000000000000
13
1441.600000000000000
23
-1476.436000000000000
33
1709.999000000000000
70
1
0
3DFACE
8
LAYER19
10
167.997700000000000
20
-1484.881000000000000
30
1779.999000000000000
11
167.878300000000000
21
-1466.881000000000000
31
1709.999000000000000
12
167.997700000000000
22
-1484.881000000000000
32
1709.999000000000000
13
167.997700000000000
23
-1484.881000000000000
33
1779.999000000000000
70
1
0
3DFACE
8
LAYER19
10
167.878300000000000
20
-1466.881000000000000
30
1709.999000000000000
11
167.997700000000000
21
-1484.881000000000000
31
1779.999000000000000
12
167.878300000000000
22
-1466.881000000000000
32
1779.999000000000000
13
167.878300000000000
23
-1466.881000000000000
33
1709.999000000000000
70
1
0
3DFACE
8
LAYER19
10
1441.480000000000000
20
-1458.436000000000000
30
1779.999000000000000
11
167.997700000000000
21
-1484.881000000000000
31
1779.999000000000000
12
1441.600000000000000
22
-1476.436000000000000
32
1779.999000000000000
13
1441.480000000000000
23
-1458.436000000000000
33
1779.999000000000000
70
1
0
3DFACE
8
LAYER19
10
167.997700000000000
20
-1484.881000000000000
30
1779.999000000000000
11
1441.480000000000000
21
-1458.436000000000000
31
1779.999000000000000
12
167.878300000000000
22
-1466.881000000000000
32
1779.999000000000000
13
167.997700000000000
23
-1484.881000000000000
33
1779.999000000000000
70
1
0
3DFACE
8
LAYER19
10
167.878300000000000
20
-1466.881000000000000
30
1709.999000000000000
11
1441.480000000000000
21
-1458.436000000000000
31
1779.999000000000000
12
1441.480000000000000
22
-1458.436000000000000
32
1709.999000000000000
13
167.878300000000000
23
-1466.881000000000000
33
1709.999000000000000
70
1
0
3DFACE
8
LAYER19
10
1441.480000000000000
20
-1458.436000000000000
30
1779.999000000000000
11
167.878300000000000
21
-1466.881000000000000
31
1709.999000000000000
12
167.878300000000000
22
-1466.881000000000000
32
1779.999000000000000
13
1441.480000000000000
23
-1458.436000000000000
33
1779.999000000000000
70
1
0
ENDSEC
0
EOF
